# xmcd
#
# Track frame offsets: 
#        150
#        28188
#        52105
#        77716
#        95513
#        114278
#        136008
#        156124
#        180015
#        208159
#        224346
#        246042
#        267380
#        281701
#        307497
#
# Disc length: 4439 seconds
#
# Revision: 2
# Processed by: cddbd v1.5.2PL0 Copyright (c) Steve Scherf et al.
# Submitted via: ExactAudioCopy v1.0b3
#
DISCID=d911550f
DTITLE=Alien Produkt - The Next Chapter [CD EP, AD-HUN-48-EP)
DYEAR=2010
DGENRE=EBM, Industrial
TTITLE0=The Next Chapter
TTITLE1=Persecusion Agonica
TTITLE2=The Next Chapter (FGFC820 Remix)
TTITLE3=The Next Chapter (Remix By Wynardtage)
TTITLE4=Persecucion Agonica (Acylum Remix)
TTITLE5=The Next Chapter (Remixed By Second Disease)
TTITLE6=The Next Chapter (Preemtive Strike 01 Remix)
TTITLE7=Persecucion Agonica (A7IE Remix)
TTITLE8=The Next Chaper (Dolls Of Pain Re_Mixxx)
TTITLE9=Persecusion Agonica (Argentum Remix)
TTITLE10=Persecusion Agonica (Engelmacher Mix)
TTITLE11=The Next Chapter (V2A Mix)
TTITLE12=Persecucion Agonica (Darkmen EBM Remix)
TTITLE13=The Next Chapter (Rmx By [T]errorgazm Project)
TTITLE14=The Next Chapter (Remix By Xperiment)
EXTD=
EXTT0=
EXTT1=
EXTT2=
EXTT3=
EXTT4=
EXTT5=
EXTT6=
EXTT7=
EXTT8=
EXTT9=
EXTT10=
EXTT11=
EXTT12=
EXTT13=
EXTT14=
PLAYORDER=
